<svg width="400" height="400" viewBox="0 0 400 400" fill="none" xmlns="http://www.w3.org/2000/svg">
<g clip-path="url(#clip0)">
<rect width="400" height="400" fill="white"/>
<rect x="-10" width="421" height="433" fill="#EEFD4E"/>
<path d="M167.587 296.253V301.89H136.181C135.375 287.664 135.375 290.616 125.98 251.695C115.243 207.135 113.901 206.331 106.116 206.331H105.581V285.516C105.581 293.569 106.117 293.837 118.465 296.253V301.89H68V296.253C80.3479 293.837 80.8848 293.569 80.8848 285.516V116.943C80.8848 108.89 80.3479 108.621 68 106.205V100.568H115.243C144.234 100.568 157.924 118.017 157.924 147.811C157.924 182.708 141.549 200.156 120.075 203.108C134.57 204.451 137.791 209.014 149.602 249.814C162.756 294.911 161.413 293.301 167.587 296.253ZM131.886 151.571C131.886 121.238 125.712 106.474 115.243 106.474C108.264 106.474 105.579 109.427 105.579 125.8V199.349H110.143C123.296 199.35 131.886 186.734 131.886 151.571Z" fill="black"/>
<path d="M249.59 223.778V229.415H202.346V223.778C217.646 222.167 218.452 222.436 212.009 207.94L198.052 176.802L185.973 207.94C180.335 222.704 181.678 222.167 192.952 223.778V229.415H160.471V223.778C170.135 221.362 169.33 220.02 175.504 207.94L195.099 170.091L173.625 122.043C168.256 109.964 167.182 108.89 159.935 106.205V100.568H207.179V106.205C190.268 107.816 191.073 107.548 197.515 122.043L212.279 155.06L223.552 122.043C228.653 107.279 227.847 107.816 216.574 106.205V100.568H249.053V106.205C239.389 108.621 239.658 109.964 234.021 122.043L215.232 161.771L235.9 207.94C241.267 220.02 242.341 221.093 249.59 223.778Z" fill="black"/>
<path d="M257.656 201.236C257.656 130.907 275.104 96.8164 305.168 96.8164C316.44 96.8164 325.569 101.38 331.474 107.285V160.702H328.79C312.417 112.921 308.926 102.721 300.337 102.721C288.258 102.721 283.963 133.859 283.963 199.355C283.963 255.456 293.626 299.211 304.631 299.211C311.342 299.211 312.952 293.842 328.79 241.768H331.474V294.649C325.837 300.286 315.905 305.118 305.168 305.118C275.104 305.118 257.656 273.711 257.656 201.236Z" fill="black"/>
</g>
<defs>
<clipPath id="clip0">
<rect width="400" height="400" fill="white"/>
</clipPath>
</defs>
</svg>
